NotoSerifTamil-Bold.ufo
<glyph name="percent" format="2">
  <advance width="906"/>
  <unicode hex="0025"/>
  <outline>
    <contour>
      <point x="240" y="0" type="line"/>
      <point x="318" y="0" type="line"/>
      <point x="662" y="714" type="line"/>
      <point x="585" y="714" type="line"/>
    </contour>
    <contour>
      <point x="214" y="280" type="curve" smooth="yes"/>
      <point x="335" y="280"/>
      <point x="394" y="369"/>
      <point x="394" y="503" type="curve"/>
      <point x="394" y="637"/>
      <point x="335" y="724"/>
      <point x="215" y="724" type="curve" smooth="yes"/>
      <point x="87" y="724"/>
      <point x="34" y="637"/>
      <point x="34" y="503" type="curve" smooth="yes"/>
      <point x="34" y="369"/>
      <point x="87" y="280"/>
    </contour>
    <contour>
      <point x="214" y="330" type="curve" smooth="yes"/>
      <point x="165" y="330"/>
      <point x="147" y="394"/>
      <point x="147" y="503" type="curve"/>
      <point x="147" y="610"/>
      <point x="165" y="673"/>
      <point x="215" y="673" type="curve" smooth="yes"/>
      <point x="264" y="673"/>
      <point x="280" y="610"/>
      <point x="280" y="503" type="curve" smooth="yes"/>
      <point x="280" y="394"/>
      <point x="264" y="330"/>
    </contour>
    <contour>
      <point x="692" y="-10" type="curve" smooth="yes"/>
      <point x="813" y="-10"/>
      <point x="872" y="79"/>
      <point x="872" y="213" type="curve" smooth="yes"/>
      <point x="872" y="347"/>
      <point x="813" y="434"/>
      <point x="693" y="434" type="curve" smooth="yes"/>
      <point x="565" y="434"/>
      <point x="512" y="347"/>
      <point x="512" y="213" type="curve" smooth="yes"/>
      <point x="512" y="79"/>
      <point x="565" y="-10"/>
    </contour>
    <contour>
      <point x="692" y="40" type="curve" smooth="yes"/>
      <point x="643" y="40"/>
      <point x="625" y="104"/>
      <point x="625" y="213" type="curve" smooth="yes"/>
      <point x="625" y="320"/>
      <point x="643" y="383"/>
      <point x="693" y="383" type="curve" smooth="yes"/>
      <point x="742" y="383"/>
      <point x="758" y="320"/>
      <point x="758" y="213" type="curve" smooth="yes"/>
      <point x="758" y="104"/>
      <point x="742" y="40"/>
    </contour>
  </outline>
</glyph>
<glyph name="period" format="2">
  <advance width="294"/>
  <unicode hex="002E"/>
  <outline>
    <contour>
      <point x="147" y="-8" type="curve" smooth="yes"/>
      <point x="191" y="-8"/>
      <point x="229" y="12"/>
      <point x="229" y="72" type="curve" smooth="yes"/>
      <point x="229" y="133"/>
      <point x="191" y="152"/>
      <point x="147" y="152" type="curve" smooth="yes"/>
      <point x="101" y="152"/>
      <point x="65" y="133"/>
      <point x="65" y="72" type="curve" smooth="yes"/>
      <point x="65" y="12"/>
      <point x="101" y="-8"/>
    </contour>
  </outline>
</glyph>
<glyph name="semicolon" format="2">
  <advance width="304"/>
  <unicode hex="003B"/>
  <outline>
    <contour>
      <point x="55" y="-154" type="line"/>
      <point x="185" y="-119"/>
      <point x="234" y="-43"/>
      <point x="234" y="42" type="curve" smooth="yes"/>
      <point x="234" y="110"/>
      <point x="198" y="152"/>
      <point x="142" y="152" type="curve" smooth="yes"/>
      <point x="101" y="152"/>
      <point x="70" y="128"/>
      <point x="70" y="83" type="curve" smooth="yes"/>
      <point x="70" y="3"/>
      <point x="143" y="14"/>
      <point x="143" y="-24" type="curve" smooth="yes"/>
      <point x="143" y="-63"/>
      <point x="113" y="-81"/>
      <point x="55" y="-102" type="curve"/>
    </contour>
    <contour>
      <point x="152" y="385" type="curve" smooth="yes"/>
      <point x="196" y="385"/>
      <point x="234" y="405"/>
      <point x="234" y="465" type="curve" smooth="yes"/>
      <point x="234" y="526"/>
      <point x="196" y="545"/>
      <point x="152" y="545" type="curve" smooth="yes"/>
      <point x="106" y="545"/>
      <point x="70" y="526"/>
      <point x="70" y="465" type="curve" smooth="yes"/>
      <point x="70" y="405"/>
      <point x="106" y="385"/>
    </contour>
  </outline>
</glyph>
<glyph name="question" format="2">
  <advance width="550"/>
  <unicode hex="003F"/>
  <outline>
    <contour>
      <point x="215" y="228" type="line"/>
      <point x="276" y="228" type="line"/>
      <point x="296" y="319" type="line"/>
      <point x="429" y="374"/>
      <point x="495" y="433"/>
      <point x="495" y="540" type="curve" smooth="yes"/>
      <point x="495" y="656"/>
      <point x="391" y="724"/>
      <point x="250" y="724" type="curve" smooth="yes"/>
      <point x="103" y="724"/>
      <point x="37" y="673"/>
      <point x="37" y="608" type="curve" smooth="yes"/>
      <point x="37" y="561"/>
      <point x="96" y="538"/>
      <point x="178" y="538" type="curve"/>
      <point x="178" y="606"/>
      <point x="198" y="664"/>
      <point x="258" y="664" type="curve" smooth="yes"/>
      <point x="313" y="664"/>
      <point x="336" y="620"/>
      <point x="336" y="556" type="curve" smooth="yes"/>
      <point x="336" y="477"/>
      <point x="309" y="397"/>
      <point x="195" y="351" type="curve"/>
    </contour>
    <contour>
      <point x="244" y="-8" type="curve" smooth="yes"/>
      <point x="288" y="-8"/>
      <point x="326" y="12"/>
      <point x="326" y="72" type="curve" smooth="yes"/>
      <point x="326" y="133"/>
      <point x="288" y="152"/>
      <point x="244" y="152" type="curve" smooth="yes"/>
      <point x="198" y="152"/>
      <point x="162" y="133"/>
      <point x="162" y="72" type="curve" smooth="yes"/>
      <point x="162" y="12"/>
      <point x="198" y="-8"/>
    </contour>
  </outline>
</glyph>
<glyph name="backslash" format="2">
  <advance width="288"/>
  <unicode hex="005C"/>
  <outline>
    <contour>
      <point x="216" y="-121" type="line"/>
      <point x="288" y="-121" type="line"/>
      <point x="71" y="760" type="line"/>
      <point x="0" y="760" type="line"/>
    </contour>
  </outline>
</glyph>
<glyph name="bracketright" format="2">
  <advance width="414"/>
  <unicode hex="005D"/>
  <outline>
    <contour>
      <point x="37" y="-128" type="line"/>
      <point x="314" y="-128" type="line"/>
      <point x="314" y="760" type="line"/>
      <point x="37" y="760" type="line"/>
      <point x="37" y="707" type="line"/>
      <point x="80" y="707" type="line" smooth="yes"/>
      <point x="125" y="707"/>
      <point x="162" y="698"/>
      <point x="162" y="635" type="curve" smooth="yes"/>
      <point x="162" y="-3" type="line" smooth="yes"/>
      <point x="162" y="-66"/>
      <point x="125" y="-75"/>
      <point x="80" y="-75" type="curve" smooth="yes"/>
      <point x="37" y="-75" type="line"/>
    </contour>
  </outline>
</glyph>
<glyph name="braceright" format="2">
  <advance width="442"/>
  <unicode hex="007D"/>
  <outline>
    <contour>
      <point x="30" y="-125" type="line"/>
      <point x="125" y="-125" type="line" smooth="yes"/>
      <point x="237" y="-125"/>
      <point x="296" y="-68"/>
      <point x="296" y="23" type="curve" smooth="yes"/>
      <point x="296" y="194" type="line" smooth="yes"/>
      <point x="296" y="270"/>
      <point x="347" y="285"/>
      <point x="412" y="288" type="curve"/>
      <point x="412" y="349" type="line"/>
      <point x="347" y="351"/>
      <point x="296" y="367"/>
      <point x="296" y="442" type="curve" smooth="yes"/>
      <point x="296" y="614" type="line" smooth="yes"/>
      <point x="296" y="707"/>
      <point x="237" y="760"/>
      <point x="125" y="760" type="curve" smooth="yes"/>
      <point x="30" y="760" type="line"/>
      <point x="30" y="707" type="line"/>
      <point x="69" y="707" type="line" smooth="yes"/>
      <point x="126" y="707"/>
      <point x="140" y="673"/>
      <point x="140" y="610" type="curve" smooth="yes"/>
      <point x="140" y="440" type="line" smooth="yes"/>
      <point x="140" y="380"/>
      <point x="173" y="341"/>
      <point x="250" y="323" type="curve"/>
      <point x="250" y="315" type="line"/>
      <point x="174" y="296"/>
      <point x="140" y="257"/>
      <point x="140" y="197" type="curve" smooth="yes"/>
      <point x="140" y="26" type="line" smooth="yes"/>
      <point x="140" y="-37"/>
      <point x="126" y="-72"/>
      <point x="69" y="-72" type="curve" smooth="yes"/>
      <point x="30" y="-72" type="line"/>
    </contour>
  </outline>
</glyph>
<glyph name="twosuperior" format="2">
  <advance width="400"/>
  <unicode hex="00B2"/>
  <outline>
    <contour>
      <point x="37" y="387" type="line"/>
      <point x="355" y="387" type="line"/>
      <point x="359" y="525" type="line"/>
      <point x="322" y="525" type="line"/>
      <point x="317" y="498" type="line" smooth="yes"/>
      <point x="313" y="479"/>
      <point x="303" y="465"/>
      <point x="275" y="465" type="curve"/>
      <point x="115" y="465" type="line"/>
      <point x="197" y="529" type="line" smooth="yes"/>
      <point x="313" y="620"/>
      <point x="341" y="659"/>
      <point x="341" y="718" type="curve" smooth="yes"/>
      <point x="341" y="783"/>
      <point x="295" y="825"/>
      <point x="187" y="825" type="curve" smooth="yes"/>
      <point x="95" y="825"/>
      <point x="45" y="789"/>
      <point x="45" y="741" type="curve" smooth="yes"/>
      <point x="45" y="698"/>
      <point x="91" y="681"/>
      <point x="135" y="681" type="curve"/>
      <point x="135" y="727"/>
      <point x="141" y="780"/>
      <point x="187" y="780" type="curve" smooth="yes"/>
      <point x="221" y="780"/>
      <point x="234" y="755"/>
      <point x="234" y="712" type="curve" smooth="yes"/>
      <point x="234" y="657"/>
      <point x="216" y="609"/>
      <point x="147" y="551" type="curve"/>
      <point x="37" y="459" type="line"/>
    </contour>
  </outline>
</glyph>
<glyph name="udatta-deva" format="2">
  <unicode hex="0951"/>
  <anchor x="0" y="563" name="_vedic"/>
  <outline>
    <contour>
      <point x="-40" y="930" type="line"/>
      <point x="40" y="930" type="line"/>
      <point x="40" y="1135" type="line"/>
      <point x="-40" y="1135" type="line"/>
    </contour>
  </outline>
</glyph>
<glyph name="anusvara-tamil" format="2">
  <unicode hex="0B82"/>
  <note>
uni0B82
</note>
  <anchor x="0" y="563" name="_top"/>
  <outline>
    <contour>
      <point x="0" y="620" type="curve" smooth="yes"/>
      <point x="79" y="620"/>
      <point x="143" y="681"/>
      <point x="143" y="763" type="curve" smooth="yes"/>
      <point x="143" y="845"/>
      <point x="79" y="906"/>
      <point x="0" y="906" type="curve" smooth="yes"/>
      <point x="-79" y="906"/>
      <point x="-143" y="845"/>
      <point x="-143" y="763" type="curve" smooth="yes"/>
      <point x="-143" y="681"/>
      <point x="-79" y="620"/>
    </contour>
    <contour>
      <point x="0" y="697" type="curve" smooth="yes"/>
      <point x="-34" y="697"/>
      <point x="-63" y="726"/>
      <point x="-63" y="763" type="curve" smooth="yes"/>
      <point x="-63" y="799"/>
      <point x="-34" y="828"/>
      <point x="0" y="828" type="curve" smooth="yes"/>
      <point x="34" y="828"/>
      <point x="63" y="799"/>
      <point x="63" y="763" type="curve" smooth="yes"/>
      <point x="63" y="726"/>
      <point x="34" y="697"/>
    </contour>
  </outline>
</glyph>
<glyph name="e-tamil" format="2">
  <advance width="989"/>
  <unicode hex="0B8E"/>
  <note>
uni0B8E
</note>
  <anchor x="525" y="0" name="bottom"/>
  <anchor x="526" y="0" name="nukta"/>
  <anchor x="527" y="563" name="top"/>
  <anchor x="528" y="563" name="vedic"/>
  <outline>
    <contour>
      <point x="297" y="-5" type="curve" smooth="yes"/>
      <point x="423" y="-5"/>
      <point x="500" y="68"/>
      <point x="500" y="160" type="curve" smooth="yes"/>
      <point x="500" y="247"/>
      <point x="438" y="323"/>
      <point x="324" y="323" type="curve" smooth="yes"/>
      <point x="211" y="323"/>
      <point x="139" y="253"/>
      <point x="126" y="106" type="curve"/>
      <point x="169" y="87" type="line"/>
      <point x="173" y="194"/>
      <point x="221" y="244"/>
      <point x="282" y="244" type="curve" smooth="yes"/>
      <point x="342" y="244"/>
      <point x="370" y="201"/>
      <point x="370" y="156" type="curve" smooth="yes"/>
      <point x="370" y="109"/>
      <point x="336" y="61"/>
      <point x="264" y="61" type="curve" smooth="yes"/>
      <point x="167" y="61"/>
      <point x="117" y="156"/>
      <point x="117" y="266" type="curve" smooth="yes"/>
      <point x="117" y="387"/>
      <point x="205" y="502"/>
      <point x="414" y="502" type="curve" smooth="yes"/>
      <point x="653" y="502" type="line"/>
      <point x="653" y="0" type="line"/>
      <point x="814" y="0" type="line"/>
      <point x="814" y="502" type="line"/>
      <point x="972" y="502" type="line"/>
      <point x="972" y="563" type="line"/>
      <point x="408" y="563" type="line" smooth="yes"/>
      <point x="166" y="563"/>
      <point x="54" y="414"/>
      <point x="54" y="268" type="curve" smooth="yes"/>
      <point x="54" y="118"/>
      <point x="145" y="-5"/>
    </contour>
  </outline>
</glyph>
<glyph name="oo-tamil" format="2">
  <advance width="1083"/>
  <unicode hex="0B93"/>
  <note>
uni0B93
</note>
  <anchor x="536" y="0" name="bottom"/>
  <anchor x="534" y="-359" name="nukta"/>
  <anchor x="529" y="563" name="top"/>
  <anchor x="529" y="563" name="vedic"/>
  <outline>
    <contour>
      <point x="363" y="-410" type="curve" smooth="yes"/>
      <point x="680" y="-410"/>
      <point x="662" y="-162"/>
      <point x="833" y="-162" type="curve" smooth="yes"/>
      <point x="908" y="-162" type="line"/>
      <point x="908" y="-96" type="line"/>
      <point x="813" y="-96" type="line" smooth="yes"/>
      <point x="610" y="-96"/>
      <point x="541" y="118"/>
      <point x="636" y="229" type="curve"/>
      <point x="643" y="225" type="line"/>
      <point x="607" y="123"/>
      <point x="650" y="-5"/>
      <point x="817" y="-5" type="curve" smooth="yes"/>
      <point x="944" y="-5"/>
      <point x="1030" y="77"/>
      <point x="1030" y="202" type="curve" smooth="yes"/>
      <point x="1030" y="435"/>
      <point x="786" y="568"/>
      <point x="511" y="568" type="curve" smooth="yes"/>
      <point x="285" y="568"/>
      <point x="54" y="457"/>
      <point x="54" y="233" type="curve" smooth="yes"/>
      <point x="54" y="103"/>
      <point x="145" y="-5"/>
      <point x="292" y="-5" type="curve" smooth="yes"/>
      <point x="414" y="-5"/>
      <point x="490" y="68"/>
      <point x="490" y="160" type="curve" smooth="yes"/>
      <point x="490" y="247"/>
      <point x="428" y="323"/>
      <point x="319" y="323" type="curve" smooth="yes"/>
      <point x="206" y="323"/>
      <point x="129" y="249"/>
      <point x="117" y="96" type="curve"/>
      <point x="159" y="77" type="line"/>
      <point x="163" y="189"/>
      <point x="216" y="244"/>
      <point x="277" y="244" type="curve" smooth="yes"/>
      <point x="333" y="244"/>
      <point x="360" y="201"/>
      <point x="360" y="156" type="curve" smooth="yes"/>
      <point x="360" y="109"/>
      <point x="326" y="61"/>
      <point x="259" y="61" type="curve" smooth="yes"/>
      <point x="167" y="61"/>
      <point x="117" y="133"/>
      <point x="117" y="233" type="curve" smooth="yes"/>
      <point x="117" y="416"/>
      <point x="321" y="514"/>
      <point x="511" y="514" type="curve" smooth="yes"/>
      <point x="716" y="514"/>
      <point x="877" y="412"/>
      <point x="877" y="231" type="curve" smooth="yes"/>
      <point x="877" y="142"/>
      <point x="852" y="61"/>
      <point x="773" y="61" type="curve" smooth="yes"/>
      <point x="688" y="61"/>
      <point x="658" y="181"/>
      <point x="719" y="276" type="curve"/>
      <point x="657" y="322" type="line"/>
      <point x="493" y="210"/>
      <point x="499" y="-15"/>
      <point x="669" y="-117" type="curve"/>
      <point x="669" y="-122" type="line"/>
      <point x="522" y="-132"/>
      <point x="481" y="-345"/>
      <point x="315" y="-345" type="curve" smooth="yes"/>
      <point x="230" y="-345"/>
      <point x="191" y="-287"/>
      <point x="191" y="-238" type="curve" smooth="yes"/>
      <point x="191" y="-193"/>
      <point x="228" y="-158"/>
      <point x="271" y="-158" type="curve" smooth="yes"/>
      <point x="318" y="-158"/>
      <point x="348" y="-184"/>
      <point x="366" y="-246" type="curve"/>
      <point x="421" y="-220"/>
      <point x="452" y="-188"/>
      <point x="452" y="-149" type="curve" smooth="yes"/>
      <point x="452" y="-96"/>
      <point x="392" y="-63"/>
      <point x="327" y="-63" type="curve" smooth="yes"/>
      <point x="219" y="-63"/>
      <point x="132" y="-124"/>
      <point x="132" y="-232" type="curve" smooth="yes"/>
      <point x="132" y="-338"/>
      <point x="235" y="-410"/>
    </contour>
  </outline>
</glyph>
<glyph name="nga-tamil" format="2">
  <advance width="1098"/>
  <unicode hex="0B99"/>
  <note>
uni0B99
</note>
  <anchor x="547" y="0" name="bottom"/>
  <anchor x="588" y="563" name="imatra"/>
  <anchor x="548" y="0" name="nukta"/>
  <anchor x="544" y="563" name="top"/>
  <anchor x="548" y="563" name="vedic"/>
  <outline>
    <contour>
      <point x="90" y="0" type="line"/>
      <point x="153" y="0" type="line"/>
      <point x="153" y="502" type="line"/>
      <point x="302" y="502" type="line"/>
      <point x="302" y="175" type="line"/>
      <point x="450" y="175" type="line"/>
      <point x="450" y="217" type="line" smooth="yes"/>
      <point x="450" y="259"/>
      <point x="480" y="281"/>
      <point x="515" y="281" type="curve" smooth="yes"/>
      <point x="552" y="281"/>
      <point x="581" y="253"/>
      <point x="581" y="200" type="curve" smooth="yes"/>
      <point x="581" y="130"/>
      <point x="536" y="61"/>
      <point x="434" y="61" type="curve" smooth="yes"/>
      <point x="302" y="61" type="line"/>
      <point x="302" y="0" type="line"/>
      <point x="1007" y="0" type="line"/>
      <point x="1007" y="563" type="line"/>
      <point x="842" y="563" type="line"/>
      <point x="842" y="61" type="line"/>
      <point x="602" y="61" type="line"/>
      <point x="660" y="73"/>
      <point x="732" y="126"/>
      <point x="732" y="229" type="curve" smooth="yes"/>
      <point x="732" y="321"/>
      <point x="668" y="383"/>
      <point x="576" y="383" type="curve" smooth="yes"/>
      <point x="519" y="383"/>
      <point x="475" y="357"/>
      <point x="456" y="330" type="curve"/>
      <point x="456" y="502" type="line"/>
      <point x="613" y="502" type="line"/>
      <point x="613" y="563" type="line"/>
      <point x="90" y="563" type="line"/>
    </contour>
  </outline>
</glyph>
<glyph name="ma-tamil" format="2">
  <advance width="975"/>
  <unicode hex="0BAE"/>
  <note>
uni0BAE
</note>
  <anchor x="487" y="0" name="bottom"/>
  <anchor x="906" y="563" name="imatra"/>
  <anchor x="487" y="0" name="nukta"/>
  <anchor x="541" y="563" name="top"/>
  <anchor x="503" y="563" name="vedic"/>
  <outline>
    <contour>
      <point x="90" y="0" type="line"/>
      <point x="757" y="0" type="line" smooth="yes"/>
      <point x="875" y="0"/>
      <point x="916" y="82"/>
      <point x="916" y="233" type="curve" smooth="yes"/>
      <point x="916" y="458"/>
      <point x="813" y="569"/>
      <point x="668" y="569" type="curve" smooth="yes"/>
      <point x="542" y="569"/>
      <point x="459" y="492"/>
      <point x="459" y="374" type="curve" smooth="yes"/>
      <point x="459" y="61" type="line"/>
      <point x="255" y="61" type="line"/>
      <point x="255" y="563" type="line"/>
      <point x="90" y="563" type="line"/>
    </contour>
    <contour>
      <point x="622" y="61" type="line"/>
      <point x="622" y="385" type="line" smooth="yes"/>
      <point x="622" y="465"/>
      <point x="658" y="499"/>
      <point x="710" y="499" type="curve" smooth="yes"/>
      <point x="773" y="499"/>
      <point x="847" y="417"/>
      <point x="847" y="236" type="curve" smooth="yes"/>
      <point x="847" y="125"/>
      <point x="827" y="61"/>
      <point x="752" y="61" type="curve" smooth="yes"/>
    </contour>
  </outline>
</glyph>
<glyph name="ya-tamil" format="2">
  <advance width="1066"/>
  <unicode hex="0BAF"/>
  <note>
uni0BAF
</note>
  <anchor x="615" y="0" name="bottom"/>
  <anchor x="965" y="563" name="imatra"/>
  <anchor x="615" y="0" name="nukta"/>
  <anchor x="582" y="563" name="top"/>
  <anchor x="531" y="563" name="vedic"/>
  <outline>
    <contour>
      <point x="267" y="-10" type="curve" smooth="yes"/>
      <point x="363" y="-10"/>
      <point x="404" y="38"/>
      <point x="419" y="63" type="curve"/>
      <point x="419" y="0" type="line"/>
      <point x="975" y="0" type="line"/>
      <point x="975" y="563" type="line"/>
      <point x="811" y="563" type="line"/>
      <point x="811" y="61" type="line"/>
      <point x="569" y="61" type="line"/>
      <point x="569" y="563" type="line"/>
      <point x="407" y="563" type="line"/>
      <point x="407" y="145" type="line" smooth="yes"/>
      <point x="407" y="96"/>
      <point x="374" y="62"/>
      <point x="327" y="62" type="curve" smooth="yes"/>
      <point x="285" y="62"/>
      <point x="252" y="90"/>
      <point x="252" y="154" type="curve" smooth="yes"/>
      <point x="252" y="563" type="line"/>
      <point x="88" y="563" type="line"/>
      <point x="88" y="166" type="line" smooth="yes"/>
      <point x="88" y="60"/>
      <point x="155" y="-10"/>
    </contour>
  </outline>
</glyph>
<glyph name="ssa-tamil" format="2">
  <advance width="1583"/>
  <unicode hex="0BB7"/>
  <note>
uni0BB7
</note>
  <anchor x="792" y="0" name="bottom"/>
  <anchor x="696" y="0" name="nukta"/>
  <anchor x="820" y="563" name="top"/>
  <anchor x="789" y="563" name="vedic"/>
  <outline>
    <contour>
      <point x="297" y="-5" type="curve" smooth="yes"/>
      <point x="423" y="-5"/>
      <point x="500" y="68"/>
      <point x="500" y="160" type="curve" smooth="yes"/>
      <point x="500" y="247"/>
      <point x="438" y="323"/>
      <point x="324" y="323" type="curve" smooth="yes"/>
      <point x="211" y="323"/>
      <point x="139" y="253"/>
      <point x="126" y="106" type="curve"/>
      <point x="169" y="87" type="line"/>
      <point x="173" y="194"/>
      <point x="221" y="244"/>
      <point x="282" y="244" type="curve" smooth="yes"/>
      <point x="342" y="244"/>
      <point x="370" y="201"/>
      <point x="370" y="156" type="curve" smooth="yes"/>
      <point x="370" y="109"/>
      <point x="336" y="61"/>
      <point x="264" y="61" type="curve" smooth="yes"/>
      <point x="167" y="61"/>
      <point x="117" y="156"/>
      <point x="117" y="266" type="curve" smooth="yes"/>
      <point x="117" y="389"/>
      <point x="206" y="507"/>
      <point x="406" y="507" type="curve" smooth="yes"/>
      <point x="558" y="507"/>
      <point x="653" y="407"/>
      <point x="653" y="263" type="curve" smooth="yes"/>
      <point x="653" y="180"/>
      <point x="622" y="95"/>
      <point x="560" y="44" type="curve"/>
      <point x="580" y="0" type="line"/>
      <point x="1524" y="0" type="line"/>
      <point x="1524" y="335" type="line"/>
      <point x="1361" y="273" type="line"/>
      <point x="1361" y="61" type="line"/>
      <point x="696" y="61" type="line"/>
      <point x="769" y="125"/>
      <point x="804" y="205"/>
      <point x="804" y="281" type="curve" smooth="yes"/>
      <point x="804" y="438"/>
      <point x="652" y="568"/>
      <point x="423" y="568" type="curve" smooth="yes"/>
      <point x="166" y="568"/>
      <point x="54" y="419"/>
      <point x="54" y="268" type="curve" smooth="yes"/>
      <point x="54" y="118"/>
      <point x="145" y="-5"/>
    </contour>
    <contour>
      <point x="1083" y="-324" type="line"/>
      <point x="1244" y="-324" type="line"/>
      <point x="1244" y="417" type="line" smooth="yes"/>
      <point x="1244" y="525"/>
      <point x="1161" y="569"/>
      <point x="1071" y="569" type="curve" smooth="yes"/>
      <point x="965" y="569"/>
      <point x="889" y="502"/>
      <point x="889" y="399" type="curve" smooth="yes"/>
      <point x="889" y="273"/>
      <point x="986" y="187"/>
      <point x="1155" y="187" type="curve" smooth="yes"/>
      <point x="1300" y="187"/>
      <point x="1393" y="224"/>
      <point x="1524" y="325" type="curve"/>
      <point x="1524" y="339" type="line"/>
      <point x="1487" y="365" type="line"/>
      <point x="1377" y="286"/>
      <point x="1309" y="239"/>
      <point x="1177" y="239" type="curve" smooth="yes"/>
      <point x="1030" y="239"/>
      <point x="950" y="286"/>
      <point x="950" y="398" type="curve" smooth="yes"/>
      <point x="950" y="444"/>
      <point x="980" y="478"/>
      <point x="1022" y="478" type="curve" smooth="yes"/>
      <point x="1058" y="478"/>
      <point x="1083" y="458"/>
      <point x="1083" y="418" type="curve" smooth="yes"/>
    </contour>
  </outline>
</glyph>
<glyph name="aaMatra-tamil" format="2">
  <advance width="686"/>
  <unicode hex="0BBE"/>
  <note>
uni0BBE
</note>
  <anchor x="368" y="0" name="bottom"/>
  <anchor x="367" y="0" name="nukta"/>
  <anchor x="361" y="563" name="top"/>
  <anchor x="361" y="563" name="vedic"/>
  <outline>
    <contour>
      <point x="90" y="0" type="line"/>
      <point x="160" y="0" type="line"/>
      <point x="160" y="502" type="line"/>
      <point x="351" y="502" type="line"/>
      <point x="351" y="0" type="line"/>
      <point x="512" y="0" type="line"/>
      <point x="512" y="502" type="line"/>
      <point x="669" y="502" type="line"/>
      <point x="669" y="563" type="line"/>
      <point x="90" y="563" type="line"/>
    </contour>
  </outline>
</glyph>
<glyph name="six-tamil" format="2">
  <advance width="1269"/>
  <unicode hex="0BEC"/>
  <note>
uni0BEC
</note>
  <outline>
    <contour>
      <point x="284" y="-4" type="curve" smooth="yes"/>
      <point x="481" y="-4"/>
      <point x="578" y="90"/>
      <point x="578" y="227" type="curve" smooth="yes"/>
      <point x="578" y="270" type="line"/>
      <point x="654" y="270" type="line" smooth="yes"/>
      <point x="693" y="270"/>
      <point x="715" y="247"/>
      <point x="715" y="208" type="curve" smooth="yes"/>
      <point x="715" y="0" type="line"/>
      <point x="861" y="0" type="line"/>
      <point x="861" y="208" type="line" smooth="yes"/>
      <point x="861" y="247"/>
      <point x="883" y="270"/>
      <point x="922" y="270" type="curve" smooth="yes"/>
      <point x="1230" y="270" type="line"/>
      <point x="1230" y="331" type="line"/>
      <point x="903" y="331" type="line" smooth="yes"/>
      <point x="844" y="331"/>
      <point x="798" y="300"/>
      <point x="788" y="252" type="curve"/>
      <point x="778" y="300"/>
      <point x="732" y="331"/>
      <point x="673" y="331" type="curve" smooth="yes"/>
      <point x="578" y="331" type="line"/>
      <point x="578" y="502" type="line"/>
      <point x="735" y="502" type="line"/>
      <point x="735" y="563" type="line"/>
      <point x="203" y="563" type="line"/>
      <point x="203" y="299" type="line"/>
      <point x="271" y="299" type="line"/>
      <point x="271" y="502" type="line"/>
      <point x="415" y="502" type="line"/>
      <point x="415" y="331" type="line"/>
      <point x="246" y="331" type="line" smooth="yes"/>
      <point x="125" y="331"/>
      <point x="59" y="260"/>
      <point x="59" y="170" type="curve" smooth="yes"/>
      <point x="59" y="64"/>
      <point x="144" y="-4"/>
    </contour>
    <contour>
      <point x="266" y="61" type="curve" smooth="yes"/>
      <point x="170" y="61"/>
      <point x="131" y="107"/>
      <point x="131" y="169" type="curve" smooth="yes"/>
      <point x="131" y="225"/>
      <point x="170" y="270"/>
      <point x="259" y="270" type="curve" smooth="yes"/>
      <point x="415" y="270" type="line"/>
      <point x="415" y="217" type="line" smooth="yes"/>
      <point x="415" y="118"/>
      <point x="354" y="61"/>
    </contour>
    <contour>
      <point x="998" y="0" type="line"/>
      <point x="1145" y="0" type="line"/>
      <point x="1145" y="297" type="line"/>
      <point x="998" y="297" type="line"/>
    </contour>
  </outline>
</glyph>
<glyph name="onehundred-tamil" format="2">
  <advance width="987"/>
  <unicode hex="0BF1"/>
  <note>
uni0BF1
</note>
  <outline>
    <contour>
      <point x="343" y="0" type="line"/>
      <point x="412" y="0" type="line"/>
      <point x="412" y="502" type="line"/>
      <point x="603" y="502" type="line"/>
      <point x="603" y="0" type="line"/>
      <point x="764" y="0" type="line"/>
      <point x="764" y="502" type="line"/>
      <point x="921" y="502" type="line"/>
      <point x="921" y="563" type="line"/>
      <point x="343" y="563" type="line"/>
    </contour>
    <contour>
      <point x="88" y="0" type="line"/>
      <point x="158" y="0" type="line"/>
      <point x="158" y="392" type="line" smooth="yes"/>
      <point x="158" y="462"/>
      <point x="187" y="505"/>
      <point x="252" y="505" type="curve" smooth="yes"/>
      <point x="313" y="505"/>
      <point x="343" y="457"/>
      <point x="343" y="378" type="curve"/>
      <point x="377" y="378" type="line"/>
      <point x="377" y="481"/>
      <point x="334" y="568"/>
      <point x="234" y="568" type="curve" smooth="yes"/>
      <point x="146" y="568"/>
      <point x="88" y="514"/>
      <point x="88" y="401" type="curve" smooth="yes"/>
    </contour>
  </outline>
</glyph>
<glyph name="onethousand-tamil" format="2">
  <advance width="1292"/>
  <unicode hex="0BF2"/>
  <note>
uni0BF2
</note>
  <outline>
    <contour>
      <point x="284" y="-4" type="curve" smooth="yes"/>
      <point x="481" y="-4"/>
      <point x="578" y="90"/>
      <point x="578" y="227" type="curve" smooth="yes"/>
      <point x="578" y="502" type="line"/>
      <point x="735" y="502" type="line"/>
      <point x="735" y="563" type="line"/>
      <point x="203" y="563" type="line"/>
      <point x="203" y="299" type="line"/>
      <point x="271" y="299" type="line"/>
      <point x="271" y="502" type="line"/>
      <point x="415" y="502" type="line"/>
      <point x="415" y="217" type="line" smooth="yes"/>
      <point x="415" y="118"/>
      <point x="354" y="61"/>
      <point x="266" y="61" type="curve" smooth="yes"/>
      <point x="170" y="61"/>
      <point x="131" y="107"/>
      <point x="131" y="169" type="curve" smooth="yes"/>
      <point x="131" y="225"/>
      <point x="170" y="270"/>
      <point x="259" y="270" type="curve" smooth="yes"/>
      <point x="1149" y="270" type="line"/>
      <point x="1149" y="331" type="line"/>
      <point x="246" y="331" type="line" smooth="yes"/>
      <point x="125" y="331"/>
      <point x="59" y="260"/>
      <point x="59" y="170" type="curve" smooth="yes"/>
      <point x="59" y="64"/>
      <point x="144" y="-4"/>
    </contour>
    <contour>
      <point x="620" y="-283" type="curve"/>
      <point x="620" y="-198"/>
      <point x="645" y="-145"/>
      <point x="761" y="-145" type="curve" smooth="yes"/>
      <point x="920" y="-145" type="line" smooth="yes"/>
      <point x="1147" y="-145"/>
      <point x="1223" y="-59"/>
      <point x="1223" y="43" type="curve" smooth="yes"/>
      <point x="1223" y="172"/>
      <point x="1119" y="206"/>
      <point x="993" y="206" type="curve" smooth="yes"/>
      <point x="783" y="206" type="line" smooth="yes"/>
      <point x="708" y="206"/>
      <point x="654" y="167"/>
      <point x="654" y="92" type="curve" smooth="yes"/>
      <point x="654" y="22"/>
      <point x="711" y="-23"/>
      <point x="801" y="-23" type="curve" smooth="yes"/>
      <point x="903" y="-23"/>
      <point x="993" y="31"/>
      <point x="993" y="146" type="curve" smooth="yes"/>
      <point x="993" y="297" type="line"/>
      <point x="861" y="297" type="line"/>
      <point x="861" y="139" type="line" smooth="yes"/>
      <point x="861" y="62"/>
      <point x="822" y="35"/>
      <point x="780" y="35" type="curve" smooth="yes"/>
      <point x="748" y="35"/>
      <point x="720" y="57"/>
      <point x="720" y="92" type="curve" smooth="yes"/>
      <point x="720" y="131"/>
      <point x="750" y="147"/>
      <point x="788" y="147" type="curve" smooth="yes"/>
      <point x="998" y="147" type="line" smooth="yes"/>
      <point x="1052" y="147"/>
      <point x="1089" y="115"/>
      <point x="1089" y="46" type="curve" smooth="yes"/>
      <point x="1089" y="-49"/>
      <point x="1009" y="-83"/>
      <point x="925" y="-83" type="curve" smooth="yes"/>
      <point x="696" y="-83" type="line" smooth="yes"/>
      <point x="588" y="-83"/>
      <point x="494" y="-108"/>
      <point x="494" y="-194" type="curve" smooth="yes"/>
      <point x="494" y="-255"/>
      <point x="542" y="-283"/>
    </contour>
  </outline>
</glyph>
<glyph name="credit-tamil" format="2">
  <advance width="1658"/>
  <unicode hex="0BF7"/>
  <note>
uni0BF7
</note>
  <anchor x="525" y="0" name="bottom"/>
  <anchor x="526" y="0" name="nukta"/>
  <anchor x="527" y="563" name="top"/>
  <anchor x="528" y="563" name="vedic"/>
  <outline>
    <contour>
      <point x="1076" y="-5" type="curve" smooth="yes"/>
      <point x="1178" y="-5"/>
      <point x="1259" y="48"/>
      <point x="1259" y="142" type="curve" smooth="yes"/>
      <point x="1259" y="256"/>
      <point x="1168" y="326"/>
      <point x="1045" y="326" type="curve" smooth="yes"/>
      <point x="944" y="326"/>
      <point x="828" y="279"/>
      <point x="743" y="194" type="curve"/>
      <point x="743" y="119" type="line"/>
      <point x="813" y="203"/>
      <point x="920" y="263"/>
      <point x="997" y="263" type="curve" smooth="yes"/>
      <point x="1074" y="263"/>
      <point x="1134" y="217"/>
      <point x="1134" y="147" type="curve" smooth="yes"/>
      <point x="1134" y="96"/>
      <point x="1104" y="62"/>
      <point x="1054" y="62" type="curve" smooth="yes"/>
      <point x="997" y="62"/>
      <point x="963" y="110"/>
      <point x="963" y="170" type="curve" smooth="yes"/>
      <point x="963" y="294"/>
      <point x="1065" y="366"/>
      <point x="1193" y="366" type="curve" smooth="yes"/>
      <point x="1317" y="366"/>
      <point x="1404" y="299"/>
      <point x="1404" y="194" type="curve" smooth="yes"/>
      <point x="1404" y="131"/>
      <point x="1370" y="76"/>
      <point x="1317" y="44" type="curve"/>
      <point x="1333" y="0" type="line"/>
      <point x="1641" y="0" type="line"/>
      <point x="1641" y="61" type="line"/>
      <point x="1440" y="61" type="line"/>
      <point x="1445" y="51" type="line"/>
      <point x="1504" y="85"/>
      <point x="1529" y="136"/>
      <point x="1529" y="194" type="curve" smooth="yes"/>
      <point x="1529" y="342"/>
      <point x="1382" y="428"/>
      <point x="1221" y="428" type="curve" smooth="yes"/>
      <point x="1052" y="428"/>
      <point x="901" y="334"/>
      <point x="901" y="182" type="curve" smooth="yes"/>
      <point x="901" y="72"/>
      <point x="968" y="-5"/>
    </contour>
    <component base="e-tamil"/>
  </outline>
</glyph>
<glyph name="number-tamil" format="2">
  <advance width="982"/>
  <unicode hex="0BFA"/>
  <note>
uni0BFA
</note>
  <anchor x="406" y="0" name="bottom"/>
  <anchor x="564" y="563" name="imatra"/>
  <anchor x="416" y="-228" name="nukta"/>
  <anchor x="416" y="563" name="top"/>
  <anchor x="451" y="563" name="vedic"/>
  <outline>
    <contour>
      <point x="739" y="502" type="line"/>
      <point x="992" y="502" type="line"/>
      <point x="992" y="561" type="line"/>
      <point x="789" y="561" type="line"/>
      <point x="798" y="535" type="line"/>
      <point x="851" y="559"/>
      <point x="978" y="623"/>
      <point x="978" y="757" type="curve" smooth="yes"/>
      <point x="978" y="867"/>
      <point x="880" y="954"/>
      <point x="749" y="954" type="curve" smooth="yes"/>
      <point x="618" y="954"/>
      <point x="517" y="852"/>
      <point x="522" y="747" type="curve" smooth="yes"/>
      <point x="526" y="664"/>
      <point x="576" y="607"/>
      <point x="656" y="607" type="curve" smooth="yes"/>
      <point x="735" y="607"/>
      <point x="798" y="651"/>
      <point x="798" y="729" type="curve" smooth="yes"/>
      <point x="798" y="802"/>
      <point x="726" y="880"/>
      <point x="603" y="880" type="curve" smooth="yes"/>
      <point x="481" y="880"/>
      <point x="379" y="812"/>
      <point x="379" y="697" type="curve" smooth="yes"/>
      <point x="379" y="604"/>
      <point x="450" y="527"/>
      <point x="554" y="522" type="curve"/>
      <point x="572" y="563" type="line"/>
      <point x="495" y="563"/>
      <point x="447" y="623"/>
      <point x="447" y="692" type="curve" smooth="yes"/>
      <point x="447" y="771"/>
      <point x="510" y="819"/>
      <point x="595" y="819" type="curve" smooth="yes"/>
      <point x="674" y="819"/>
      <point x="700" y="762"/>
      <point x="700" y="729" type="curve" smooth="yes"/>
      <point x="700" y="694"/>
      <point x="677" y="671"/>
      <point x="642" y="671" type="curve" smooth="yes"/>
      <point x="606" y="671"/>
      <point x="588" y="703"/>
      <point x="585" y="741" type="curve" smooth="yes"/>
      <point x="579" y="818"/>
      <point x="641" y="886"/>
      <point x="736" y="886" type="curve" smooth="yes"/>
      <point x="832" y="886"/>
      <point x="880" y="821"/>
      <point x="880" y="739" type="curve" smooth="yes"/>
      <point x="880" y="631"/>
      <point x="782" y="574"/>
      <point x="724" y="551" type="curve"/>
    </contour>
    <component base="na-tamil"/>
  </outline>
</glyph>
<glyph name="quotedblright" format="2">
  <advance width="489"/>
  <unicode hex="201D"/>
  <outline>
    <contour>
      <point x="254" y="408" type="line"/>
      <point x="384" y="443"/>
      <point x="433" y="519"/>
      <point x="433" y="604" type="curve" smooth="yes"/>
      <point x="433" y="672"/>
      <point x="397" y="714"/>
      <point x="341" y="714" type="curve" smooth="yes"/>
      <point x="300" y="714"/>
      <point x="269" y="690"/>
      <point x="269" y="645" type="curve" smooth="yes"/>
      <point x="269" y="565"/>
      <point x="342" y="576"/>
      <point x="342" y="538" type="curve" smooth="yes"/>
      <point x="342" y="499"/>
      <point x="312" y="481"/>
      <point x="254" y="460" type="curve"/>
    </contour>
    <contour>
      <point x="45" y="408" type="line"/>
      <point x="175" y="443"/>
      <point x="224" y="519"/>
      <point x="224" y="604" type="curve" smooth="yes"/>
      <point x="224" y="672"/>
      <point x="188" y="714"/>
      <point x="132" y="714" type="curve" smooth="yes"/>
      <point x="91" y="714"/>
      <point x="60" y="690"/>
      <point x="60" y="645" type="curve" smooth="yes"/>
      <point x="60" y="565"/>
      <point x="133" y="576"/>
      <point x="133" y="538" type="curve"/>
      <point x="133" y="499"/>
      <point x="103" y="481"/>
      <point x="45" y="460" type="curve"/>
    </contour>
  </outline>
</glyph>
<glyph name="pii-tamil" format="2">
  <advance width="966"/>
  <note>
g122
</note>
  <anchor x="475" y="0" name="bottom"/>
  <anchor x="475" y="0" name="nukta"/>
  <anchor x="770" y="904" name="top"/>
  <anchor x="473" y="563" name="vedic"/>
  <anchor x="866" y="563" name="imatra"/>
  <outline>
    <contour>
      <point x="696" y="502" type="curve" smooth="yes"/>
      <point x="730" y="502" type="line"/>
      <point x="730" y="563" type="line"/>
      <point x="696" y="563" type="line" smooth="yes"/>
      <point x="626" y="563"/>
      <point x="576" y="605"/>
      <point x="576" y="682" type="curve" smooth="yes"/>
      <point x="576" y="781"/>
      <point x="653" y="844"/>
      <point x="759" y="844" type="curve" smooth="yes"/>
      <point x="825" y="844"/>
      <point x="870" y="808"/>
      <point x="870" y="749" type="curve" smooth="yes"/>
      <point x="870" y="714"/>
      <point x="844" y="682"/>
      <point x="802" y="682" type="curve" smooth="yes"/>
      <point x="718" y="682"/>
      <point x="700" y="781"/>
      <point x="747" y="868" type="curve"/>
      <point x="691" y="872" type="line"/>
      <point x="615" y="751"/>
      <point x="671" y="609"/>
      <point x="815" y="609" type="curve" smooth="yes"/>
      <point x="913" y="609"/>
      <point x="978" y="657"/>
      <point x="978" y="741" type="curve" smooth="yes"/>
      <point x="978" y="837"/>
      <point x="893" y="904"/>
      <point x="770" y="904" type="curve" smooth="yes"/>
      <point x="625" y="904"/>
      <point x="507" y="826"/>
      <point x="507" y="688" type="curve" smooth="yes"/>
      <point x="507" y="579"/>
      <point x="586" y="502"/>
    </contour>
    <component base="pa-tamil"/>
  </outline>
</glyph>
<glyph name="uMatra-tamil.alt01" format="2">
  <advance width="595"/>
  <note>
uni0BC1
</note>
  <anchor x="274" y="563" name="top"/>
  <outline>
    <contour>
      <point x="374" y="224" type="curve" smooth="yes"/>
      <point x="471" y="224"/>
      <point x="578" y="278"/>
      <point x="578" y="405" type="curve" smooth="yes"/>
      <point x="578" y="567" type="line"/>
      <point x="-161" y="567" type="line"/>
      <point x="-161" y="506" type="line"/>
      <point x="417" y="506" type="line"/>
      <point x="417" y="391" type="line" smooth="yes"/>
      <point x="417" y="322"/>
      <point x="372" y="298"/>
      <point x="330" y="298" type="curve" smooth="yes"/>
      <point x="274" y="298"/>
      <point x="241" y="332"/>
      <point x="241" y="416" type="curve" smooth="yes"/>
      <point x="241" y="529" type="line"/>
      <point x="174" y="529" type="line"/>
      <point x="174" y="429" type="line" smooth="yes"/>
      <point x="174" y="283"/>
      <point x="261" y="224"/>
    </contour>
  </outline>
</glyph>
<glyph name="yii-tamil" format="2">
  <advance width="1065"/>
  <note>
g127
</note>
  <anchor x="559" y="0" name="bottom"/>
  <anchor x="559" y="0" name="nukta"/>
  <anchor x="885" y="904" name="top"/>
  <anchor x="540" y="563" name="vedic"/>
  <anchor x="965" y="563" name="imatra"/>
  <outline>
    <contour>
      <point x="811" y="502" type="curve" smooth="yes"/>
      <point x="845" y="502" type="line"/>
      <point x="845" y="563" type="line"/>
      <point x="811" y="563" type="line" smooth="yes"/>
      <point x="742" y="563"/>
      <point x="691" y="605"/>
      <point x="691" y="682" type="curve" smooth="yes"/>
      <point x="691" y="781"/>
      <point x="768" y="844"/>
      <point x="875" y="844" type="curve" smooth="yes"/>
      <point x="940" y="844"/>
      <point x="985" y="808"/>
      <point x="985" y="749" type="curve" smooth="yes"/>
      <point x="985" y="714"/>
      <point x="959" y="682"/>
      <point x="917" y="682" type="curve" smooth="yes"/>
      <point x="833" y="682"/>
      <point x="815" y="781"/>
      <point x="862" y="868" type="curve"/>
      <point x="807" y="872" type="line"/>
      <point x="730" y="751"/>
      <point x="786" y="609"/>
      <point x="931" y="609" type="curve" smooth="yes"/>
      <point x="1028" y="609"/>
      <point x="1093" y="657"/>
      <point x="1093" y="741" type="curve" smooth="yes"/>
      <point x="1093" y="837"/>
      <point x="1008" y="904"/>
      <point x="885" y="904" type="curve" smooth="yes"/>
      <point x="740" y="904"/>
      <point x="623" y="826"/>
      <point x="623" y="688" type="curve" smooth="yes"/>
      <point x="623" y="579"/>
      <point x="701" y="502"/>
    </contour>
    <component base="ya-tamil"/>
  </outline>
</glyph>
